<?xml version="1.0" encoding="utf-8"?>
<!-- Generator: Adobe Illustrator 16.0.0, SVG Export Plug-In . SVG Version: 6.00 Build 0)  -->
<!DOCTYPE svg PUBLIC "-//W3C//DTD SVG 1.1//EN" "http://www.w3.org/Graphics/SVG/1.1/DTD/svg11.dtd">
<svg version="1.1" id="Layer_1" xmlns="http://www.w3.org/2000/svg" xmlns:xlink="http://www.w3.org/1999/xlink" x="0px" y="0px"
	 width="32.723px" height="40.187px" viewBox="0 0 32.723 40.187" enable-background="new 0 0 32.723 40.187" xml:space="preserve">
<g>
	<g>
		<path fill="#404258" d="M24.311,9.709c-3.309-0.245-6.115,1.849-7.682,1.849c-1.59,0-4.039-1.796-6.637-1.747
			c-3.41,0.05-6.553,1.985-8.312,5.039c-3.542,6.148-0.904,15.26,2.546,20.25c1.688,2.438,3.701,5.185,6.346,5.085
			c2.544-0.099,3.508-1.645,6.584-1.645c3.074,0,3.941,1.645,6.633,1.595c2.739-0.05,4.475-2.488,6.15-4.94
			c1.938-2.83,2.736-5.57,2.783-5.714c-0.062-0.022-5.34-2.048-5.393-8.131c-0.049-5.085,4.15-7.529,4.342-7.647
			C29.287,10.193,25.607,9.805,24.311,9.709"/>
	</g>
	<g>
		<path fill="#404258" d="M22.269,6.416C23.674,4.718,24.619,2.353,24.359,0c-2.023,0.08-4.469,1.348-5.92,3.044
			C17.141,4.548,16,6.956,16.311,9.26C18.564,9.435,20.865,8.115,22.269,6.416"/>
	</g>
</g>
</svg>
