<?xml version="1.0" encoding="utf-8"?>
<!-- Generator: Adobe Illustrator 16.0.0, SVG Export Plug-In . SVG Version: 6.00 Build 0)  -->
<!DOCTYPE svg PUBLIC "-//W3C//DTD SVG 1.1//EN" "http://www.w3.org/Graphics/SVG/1.1/DTD/svg11.dtd">
<svg version="1.1" id="Layer_1" xmlns="http://www.w3.org/2000/svg" xmlns:xlink="http://www.w3.org/1999/xlink" x="0px" y="0px"
	 width="73px" height="19.861px" viewBox="0 0 73 19.861" enable-background="new 0 0 73 19.861" xml:space="preserve">
<g>
	<polygon fill="#FF5A28" points="20.445,0.216 20.445,14.736 3.895,0.216 0,0.216 0,19.862 3.895,19.862 3.895,4.914 20.932,19.862 
		24.34,19.862 24.34,0.216 	"/>
	<path fill="#FF5A28" d="M26.621,0.2v19.554h12.372c9.776,0,13.967-4.378,13.967-9.777c0-5.398-4.289-9.776-13.967-9.776H26.621z
		 M33.006,2.793h3.328c6.818,0,9.842,3.217,9.842,7.184s-2.953,7.184-9.842,7.184h-3.328V2.793z"/>
	<g>
		<path fill="#FF5A28" d="M53.584,19.146c0-1.537-0.043-2.062-0.043-3.329c3.354,0.832,4.988,1.184,7.34,1.287
			c0.912,0.042,2.565,0.088,3.332-0.071c0.765-0.16,1.266-0.25,1.809-0.792c0.542-0.542,0.584-1.188,0.584-1.599
			s-0.279-0.691-0.438-0.894c-0.267-0.304-0.752-0.642-1.451-1.014c-0.842-0.484-3.278-1.31-5.866-2.42
			c-0.903-0.354-1.502-0.641-1.796-0.857c-1.098-0.575-1.901-1.281-2.416-1.718c-0.516-0.438-0.717-0.896-0.874-1.354
			c-0.156-0.441-0.195-0.699-0.195-1.202c0-0.896,0.248-1.881,1.089-2.671c0.842-0.79,2.094-1.404,3.756-1.848S62.15,0,64.629,0
			c1.422,0,2.445,0.086,3.841,0.29c0.745,0.109,1.425,0.299,2.472,0.425c0,1.046-0.01,1.748-0.01,3.035
			c-2.748-0.549-4.852-1.07-6.783-1.07c-1.38,0-2.488,0.18-3.335,0.538c-0.842,0.359-1.323,0.76-1.323,1.195
			c0,0.129,0,0.371,0.016,0.548c0.013,0.156,0.283,0.535,0.396,0.665c0.116,0.129,0.331,0.307,0.65,0.533
			c0.318,0.228,0.805,0.501,1.449,0.817c0.648,0.319,2.728,0.938,3.203,1.145l2.797,1.043c0.695,0.346,1.361,0.587,1.924,0.922
			c0.562,0.337,1.054,0.665,1.47,0.985c0.418,0.318,0.636,0.585,0.881,0.885c0.242,0.301,0.42,0.8,0.539,1.11
			C72.937,13.378,73,14.11,73,14.448c0,0.806-0.26,1.569-0.834,2.336c-0.565,0.754-1.525,1.509-2.689,1.966
			c-1.161,0.457-2.475,0.744-3.835,0.918c-1.358,0.173-2.451,0.194-3.962,0.194c-1.014,0-2.457-0.157-3.746-0.255
			C56.645,19.511,55.946,19.455,53.584,19.146z"/>
	</g>
</g>
</svg>
