<?xml version="1.0" encoding="utf-8"?>
<!-- Generator: Adobe Illustrator 16.0.0, SVG Export Plug-In . SVG Version: 6.00 Build 0)  -->
<!DOCTYPE svg PUBLIC "-//W3C//DTD SVG 1.1//EN" "http://www.w3.org/Graphics/SVG/1.1/DTD/svg11.dtd">
<svg version="1.1" id="Layer_1" xmlns="http://www.w3.org/2000/svg" xmlns:xlink="http://www.w3.org/1999/xlink" x="0px" y="0px"
	 width="73.001px" height="19.862px" viewBox="0 0 73.001 19.862" enable-background="new 0 0 73.001 19.862" xml:space="preserve">
<g>
	<polygon fill="#404258" points="20.445,0.216 20.445,14.736 3.895,0.216 0,0.216 0,19.862 3.895,19.862 3.895,4.914 20.932,19.862 
		24.34,19.862 24.34,0.216 	"/>
	<path fill="#404258" d="M26.621,0.2v19.554h12.371c9.777,0,13.968-4.378,13.968-9.777S48.67,0.2,38.992,0.2H26.621z M33.006,2.793
		h3.328c6.818,0,9.842,3.217,9.842,7.184s-2.953,7.183-9.842,7.183h-3.328V2.793z"/>
	<g>
		<path fill="#404258" d="M53.584,19.146c0-1.537-0.043-2.062-0.043-3.329c3.355,0.832,4.989,1.183,7.34,1.287
			c0.912,0.042,2.566,0.088,3.332-0.072c0.765-0.16,1.266-0.25,1.809-0.792c0.542-0.542,0.584-1.188,0.584-1.598
			s-0.279-0.692-0.438-0.894c-0.266-0.303-0.751-0.641-1.45-1.013c-0.843-0.485-3.279-1.31-5.867-2.42
			c-0.903-0.354-1.502-0.641-1.796-0.858c-1.097-0.575-1.901-1.281-2.416-1.718c-0.515-0.437-0.717-0.896-0.874-1.353
			c-0.156-0.441-0.195-0.699-0.195-1.202c0-0.896,0.248-1.881,1.088-2.671c0.842-0.79,2.095-1.404,3.756-1.848
			C60.076,0.222,62.15,0,64.63,0c1.421,0,2.445,0.086,3.84,0.29c0.746,0.11,1.425,0.299,2.472,0.425c0,1.046-0.01,1.748-0.01,3.035
			C68.184,3.201,66.08,2.68,64.149,2.68c-1.38,0-2.489,0.18-3.335,0.538c-0.842,0.359-1.324,0.76-1.324,1.195
			c0,0.129,0,0.371,0.016,0.548c0.013,0.156,0.284,0.535,0.397,0.665c0.116,0.129,0.331,0.307,0.65,0.533
			c0.319,0.228,0.805,0.501,1.45,0.818c0.648,0.319,2.727,0.938,3.203,1.144l2.797,1.043c0.695,0.346,1.361,0.587,1.924,0.922
			c0.562,0.337,1.053,0.665,1.469,0.986c0.418,0.318,0.635,0.584,0.881,0.884c0.242,0.301,0.42,0.8,0.539,1.111
			c0.121,0.311,0.185,1.043,0.185,1.381c0,0.806-0.26,1.57-0.835,2.336c-0.565,0.754-1.525,1.509-2.689,1.966
			c-1.161,0.457-2.475,0.744-3.835,0.918c-1.358,0.173-2.451,0.195-3.962,0.195c-1.014,0-2.457-0.158-3.746-0.255
			S55.946,19.455,53.584,19.146z"/>
	</g>
</g>
</svg>
