<?xml version="1.0" encoding="utf-8"?>
<!-- Generator: Adobe Illustrator 16.0.0, SVG Export Plug-In . SVG Version: 6.00 Build 0)  -->
<!DOCTYPE svg PUBLIC "-//W3C//DTD SVG 1.1//EN" "http://www.w3.org/Graphics/SVG/1.1/DTD/svg11.dtd">
<svg version="1.1" id="Layer_1" xmlns="http://www.w3.org/2000/svg" xmlns:xlink="http://www.w3.org/1999/xlink" x="0px" y="0px"
	 width="75.692px" height="13.061px" viewBox="0 0 75.692 13.061" enable-background="new 0 0 75.692 13.061" xml:space="preserve">
<g>
	<polygon id="polygon5_3_" fill="#404258" points="0,0 0,0.921 22.69,0.921 22.69,6.028 0,6.028 0,13.061 0.921,13.061 0.921,6.949 
		23.528,6.949 23.528,0 	"/>
	<polygon id="polygon7_3_" fill="#404258" points="52.08,0 52.08,0.921 74.772,0.921 74.772,6.028 52.08,6.028 52.08,13.061 
		75.692,13.061 75.692,12.141 53.085,12.141 53.085,6.949 75.692,6.949 75.692,0 	"/>
	<polygon id="polygon9_3_" fill="#404258" points="35.585,0 35.585,12.141 23.528,12.141 23.528,13.061 36.59,13.061 36.59,0.921 
		48.563,0.921 48.563,0 	"/>
</g>
</svg>
