<?xml version="1.0" encoding="utf-8"?>
<!-- Generator: Adobe Illustrator 16.0.0, SVG Export Plug-In . SVG Version: 6.00 Build 0)  -->
<!DOCTYPE svg PUBLIC "-//W3C//DTD SVG 1.1//EN" "http://www.w3.org/Graphics/SVG/1.1/DTD/svg11.dtd">
<svg version="1.1" id="Layer_1" xmlns="http://www.w3.org/2000/svg" xmlns:xlink="http://www.w3.org/1999/xlink" x="0px" y="0px"
	 width="76.654px" height="17.023px" viewBox="0 0 76.654 17.023" enable-background="new 0 0 76.654 17.023" xml:space="preserve">
<g>
	<path fill="#FFFFFF" d="M20.202,0H0v2.36h19.106c1.212,0.039,2.499,0.708,2.499,2.47c0,1.76-1.271,2.429-2.462,2.469H3.74
		c-0.146,0-0.926,0.021-1.742,0.43c-1.197,0.599-1.856,1.725-1.856,3.171v5.748h3.217v-5.748c0-0.876,0.514-1.394,1.411-1.417
		h14.388c1.859-0.028,4.632-1.29,4.632-4.651C23.788,1.31,21.936,0.027,20.202,0z"/>
	<path fill="#FFFFFF" d="M75.17,8.304l0.161-0.154c0.878-0.838,1.323-1.955,1.323-3.32c0-3.52-1.853-4.802-3.586-4.83H52.775v2.36
		h19.197c1.212,0.039,2.5,0.708,2.5,2.47c0,1.76-1.271,2.429-2.464,2.469H52.775v0.03v1.17v0.533h19.197
		c0.991,0,2.174,0.579,2.174,3.339c0,1.76-1.271,2.43-2.461,2.47h-0.004h-0.005H52.775v2.183h19.247
		c1.859-0.028,4.632-1.29,4.632-4.652c0-1.722-0.457-3.075-1.324-3.913L75.17,8.304z"/>
	<path fill="#FFFFFF" d="M35.283,1.146c-0.779,0.871-0.771,1.956-0.75,2.268V3.42v0.007v10.146c0,0.736-0.302,1.019-0.4,1.113
		c-0.495,0.464-1.342,0.5-1.59,0.5c-0.046,0-0.086-0.001-0.12-0.003l-9.146-0.003v1.746H33.89h0.007l0.006,0.001
		c0.035,0.003,0.109,0.006,0.217,0.006c0.521,0,1.837-0.095,2.773-0.96c0.44-0.409,0.968-1.157,0.968-2.401V3.39l-0.007-0.113h0.002
		c-0.005-0.119-0.003-0.617,0.31-0.965c0.337-0.377,0.952-0.456,1.408-0.456h10.065V0.109H37.994
		C36.812,0.109,35.9,0.458,35.283,1.146z"/>
</g>
</svg>
