<?xml version="1.0" encoding="utf-8"?>
<!-- Generator: Adobe Illustrator 16.0.0, SVG Export Plug-In . SVG Version: 6.00 Build 0)  -->
<!DOCTYPE svg PUBLIC "-//W3C//DTD SVG 1.1//EN" "http://www.w3.org/Graphics/SVG/1.1/DTD/svg11.dtd">
<svg version="1.1" id="Layer_1" xmlns="http://www.w3.org/2000/svg" xmlns:xlink="http://www.w3.org/1999/xlink" x="0px" y="0px"
	 width="75.691px" height="12.914px" viewBox="0 0 75.691 12.914" enable-background="new 0 0 75.691 12.914" xml:space="preserve">
<g>
	<polygon fill="#FF5A28" points="23.868,0.043 23.854,0.043 23.854,0 0.015,0 0.015,1.05 22.818,1.05 22.818,5.953 0.409,5.953 
		0.409,5.956 0,5.956 0,12.914 1.43,12.914 1.43,7.003 23.854,7.003 23.854,6.988 23.868,6.988 	"/>
	<polygon fill="#FF5A28" points="48.708,0 35.417,0 35.417,0.015 35.409,0.015 35.409,11.904 23.489,11.904 23.489,12.914 
		36.788,12.914 36.788,1.05 48.708,1.05 	"/>
	<polygon fill="#FF5A28" points="75.692,0.043 75.677,0.043 75.677,0 51.838,0 51.838,1.05 74.642,1.05 74.642,5.953 52.231,5.953 
		52.231,5.956 51.823,5.956 51.823,12.914 53.253,12.914 53.253,7.003 75.679,7.003 75.679,6.988 75.692,6.988 	"/>
</g>
</svg>
