<?xml version="1.0" encoding="utf-8"?>
<!-- Generator: Adobe Illustrator 16.0.0, SVG Export Plug-In . SVG Version: 6.00 Build 0)  -->
<!DOCTYPE svg PUBLIC "-//W3C//DTD SVG 1.1//EN" "http://www.w3.org/Graphics/SVG/1.1/DTD/svg11.dtd">
<svg version="1.1" id="Layer_1" xmlns="http://www.w3.org/2000/svg" xmlns:xlink="http://www.w3.org/1999/xlink" x="0px" y="0px"
	 width="59.055px" height="25.743px" viewBox="0 0 59.055 25.743" enable-background="new 0 0 59.055 25.743" xml:space="preserve">
<g>
	<path fill="#FFFFFF" d="M0,1.378h5.431l4.525,17.843l4.137-15.688c0,0,1.077-2.413,3.232-2.327c0,0,1.853-0.258,3.23,2.199
		l4.224,15.816l4.568-17.799h5.43l-5.903,20.946c0,0-0.775,2.973-3.447,3.36c0,0-2.844,0.39-4.051-2.802L17.411,8.49l-4.096,14.652
		c0,0-0.904,2.586-3.446,2.586c0,0-2.889,0.216-3.879-3.06L0,1.378L0,1.378z"/>
	<polygon fill="#FFFFFF" points="37.536,25.556 42.751,25.556 42.751,8.792 37.536,8.792 	"/>
	<path fill="#FFFFFF" d="M40.145,0c1.603,0,2.909,1.307,2.909,2.909c0,1.602-1.308,2.909-2.909,2.909
		c-1.603,0-2.909-1.307-2.909-2.909C37.236,1.307,38.542,0,40.145,0L40.145,0z"/>
	<polygon fill="#FFFFFF" points="48.052,25.556 53.267,25.556 53.267,8.792 48.052,8.792 	"/>
	<path fill="#FFFFFF" d="M50.659,0c1.603,0,2.908,1.307,2.908,2.909c0,1.602-1.307,2.909-2.908,2.909
		c-1.603,0-2.908-1.307-2.908-2.909C47.751,1.307,49.058,0,50.659,0L50.659,0z"/>
	<path fill="#FFFFFF" d="M55.517,25.556v-2.015h-0.753v-0.271h1.812v0.271h-0.757v2.015H55.517L55.517,25.556z M56.874,25.556
		v-2.284h0.455l0.541,1.618c0.051,0.149,0.086,0.263,0.108,0.338c0.025-0.083,0.066-0.205,0.121-0.366l0.547-1.589h0.407v2.284
		h-0.292v-1.912l-0.664,1.912h-0.271l-0.659-1.944v1.944L56.874,25.556L56.874,25.556z"/>
</g>
</svg>
