<?xml version="1.0" encoding="utf-8"?>
<!-- Generator: Adobe Illustrator 16.0.0, SVG Export Plug-In . SVG Version: 6.00 Build 0)  -->
<!DOCTYPE svg PUBLIC "-//W3C//DTD SVG 1.1//EN" "http://www.w3.org/Graphics/SVG/1.1/DTD/svg11.dtd">
<svg version="1.1" id="Layer_1" xmlns="http://www.w3.org/2000/svg" xmlns:xlink="http://www.w3.org/1999/xlink" x="0px" y="0px"
	 width="59.055px" height="25.743px" viewBox="0 0 59.055 25.743" enable-background="new 0 0 59.055 25.743" xml:space="preserve">
<g>
	<path fill-rule="evenodd" clip-rule="evenodd" fill="#404258" d="M0,1.378h5.431l4.525,17.843l4.137-15.688
		c0,0,1.077-2.413,3.232-2.327c0,0,1.853-0.258,3.231,2.199l4.224,15.816l4.568-17.799h5.43l-5.904,20.945
		c0,0-0.775,2.973-3.447,3.361c0,0-2.844,0.389-4.051-2.802L17.411,8.49l-4.095,14.652c0,0-0.905,2.586-3.447,2.586
		c0,0-2.888,0.216-3.879-3.06L0,1.378L0,1.378z"/>
	<polygon fill-rule="evenodd" clip-rule="evenodd" fill="#404258" points="37.536,25.556 42.751,25.556 42.751,8.792 37.536,8.792 
		37.536,25.556 	"/>
	<path fill-rule="evenodd" clip-rule="evenodd" fill="#404258" d="M40.145,0c1.602,0,2.909,1.307,2.909,2.909
		s-1.308,2.909-2.909,2.909c-1.603,0-2.909-1.307-2.909-2.909S38.542,0,40.145,0L40.145,0z"/>
	<polygon fill-rule="evenodd" clip-rule="evenodd" fill="#404258" points="48.052,25.556 53.267,25.556 53.267,8.792 48.052,8.792 
		48.052,25.556 	"/>
	<path fill-rule="evenodd" clip-rule="evenodd" fill="#404258" d="M50.659,0c1.603,0,2.909,1.307,2.909,2.909
		s-1.307,2.909-2.909,2.909c-1.602,0-2.908-1.307-2.908-2.909S49.058,0,50.659,0L50.659,0z"/>
	<path fill-rule="evenodd" clip-rule="evenodd" fill="#404258" d="M55.517,25.556v-2.015h-0.753v-0.27h1.811v0.27h-0.756v2.015
		H55.517L55.517,25.556z M56.874,25.556v-2.284h0.455l0.541,1.618c0.051,0.15,0.086,0.263,0.109,0.338
		c0.025-0.083,0.066-0.205,0.121-0.366l0.547-1.589h0.407v2.284h-0.292v-1.912l-0.664,1.912h-0.272l-0.659-1.944v1.944H56.874
		L56.874,25.556z"/>
</g>
</svg>
