<?xml version="1.0" encoding="utf-8"?>
<!-- Generator: Adobe Illustrator 16.0.0, SVG Export Plug-In . SVG Version: 6.00 Build 0)  -->
<!DOCTYPE svg PUBLIC "-//W3C//DTD SVG 1.1//EN" "http://www.w3.org/Graphics/SVG/1.1/DTD/svg11.dtd">
<svg version="1.1" id="Layer_1" xmlns="http://www.w3.org/2000/svg" xmlns:xlink="http://www.w3.org/1999/xlink" x="0px" y="0px"
	 width="41.621px" height="36.684px" viewBox="0 0 41.621 36.684" enable-background="new 0 0 41.621 36.684" xml:space="preserve">
<g>
	<path fill="#FFFFFF" d="M8.646,1.762c0,0,8.318-4.525,15.436,0.927L20.1,16.374c0,0-4.457-3.07-7.767-2.739
		s-7.669,1.916-7.669,1.916L8.646,1.762z"/>
	<path fill="#FFFFFF" d="M3.962,17.962c0,0,4.465-2.077,8.172-1.812c3.706,0.266,6.666,2.261,7.304,2.719l-4.023,13.827
		c0,0-4.473-2.909-7.649-2.645C4.587,30.315,1.833,30.799,0,31.749L3.962,17.962z"/>
	<path fill="#FFFFFF" d="M21.521,20.207c0,0,4.246,2.761,7.025,2.694c2.739-0.064,4.635-0.281,8.35-1.736
		c0.029-0.012,0.105-0.065,0.08-0.05c-0.08,0.05-3.98,13.703-3.98,13.703s-4.381,2.05-8.354,1.853
		c-3.972-0.199-6.356-2.47-7.083-2.758L21.521,20.207z"/>
	<path fill="#FFFFFF" d="M26.188,4.133l-3.992,13.604c0,0,3.242,3.178,7.811,2.912c4.568-0.265,7.049-1.704,7.653-1.906
		l3.963-13.727c0,0-5.263,2.196-8.704,1.799C29.477,6.42,27.331,4.957,26.188,4.133z"/>
</g>
</svg>
