<?xml version="1.0" encoding="utf-8"?>
<!-- Generator: Adobe Illustrator 16.0.0, SVG Export Plug-In . SVG Version: 6.00 Build 0)  -->
<!DOCTYPE svg PUBLIC "-//W3C//DTD SVG 1.1//EN" "http://www.w3.org/Graphics/SVG/1.1/DTD/svg11.dtd">
<svg version="1.1" id="Layer_1" xmlns="http://www.w3.org/2000/svg" xmlns:xlink="http://www.w3.org/1999/xlink" x="0px" y="0px"
	 width="41.621px" height="36.684px" viewBox="0 0 41.621 36.684" enable-background="new 0 0 41.621 36.684" xml:space="preserve">
<g>
	<path fill="#404258" d="M8.646,1.762c0,0,8.318-4.525,15.436,0.927l-3.982,13.685c0,0-4.457-3.07-7.767-2.739
		c-3.31,0.331-7.669,1.916-7.669,1.916L8.646,1.762z"/>
	<path fill="#404258" d="M3.962,17.962c0,0,4.465-2.077,8.172-1.812c3.706,0.265,6.666,2.26,7.304,2.718l-4.023,13.828
		c0,0-4.473-2.91-7.649-2.645C4.587,30.315,1.833,30.799,0,31.749L3.962,17.962z"/>
	<path fill="#404258" d="M21.522,20.207c0,0,4.246,2.761,7.025,2.695c2.739-0.065,4.634-0.282,8.35-1.737
		c0.029-0.011,0.105-0.065,0.08-0.05c-0.08,0.05-3.981,13.704-3.981,13.704s-4.381,2.049-8.353,1.852
		c-3.972-0.199-6.357-2.47-7.084-2.758L21.522,20.207z"/>
	<path fill="#404258" d="M26.187,4.133l-3.992,13.605c0,0,3.243,3.177,7.811,2.912s7.049-1.704,7.653-1.907l3.963-13.726
		c0,0-5.262,2.196-8.704,1.799C29.476,6.42,27.331,4.957,26.187,4.133z"/>
</g>
</svg>
