<?xml version="1.0" encoding="utf-8"?>
<!-- Generator: Adobe Illustrator 16.0.0, SVG Export Plug-In . SVG Version: 6.00 Build 0)  -->
<!DOCTYPE svg PUBLIC "-//W3C//DTD SVG 1.1//EN" "http://www.w3.org/Graphics/SVG/1.1/DTD/svg11.dtd">
<svg version="1.1" id="Layer_1" xmlns="http://www.w3.org/2000/svg" xmlns:xlink="http://www.w3.org/1999/xlink" x="0px" y="0px"
	 width="35.932px" height="35.936px" viewBox="0 0 35.932 35.936" enable-background="new 0 0 35.932 35.936" xml:space="preserve">
<g>
	<path fill="#FF5A28" d="M8.004,3.049C7.986,3.062,7.972,3.078,7.955,3.092C8.057,2.984,8.203,2.868,8.3,2.806
		C11.112,0.978,14.362,0,17.968,0c3.373,0,6.532,0.933,9.229,2.551c0.195,0.116,0.729,0.482,1.005,0.814v0.001
		c-2.604-2.868-10.249,3.286-10.249,3.286c-2.646-2.039-5.078-3.428-6.89-3.922C9.549,2.315,8.501,2.662,8.004,3.049z M31.146,5.76
		C31.066,5.673,30.98,5.59,30.9,5.5c-0.656-0.722-1.465-0.896-2.194-0.849c-0.662,0.208-3.729,1.312-7.506,4.879
		c0,0,4.252,4.135,6.856,8.362c2.603,4.228,4.157,7.55,3.2,12.161c2.903-3.191,4.675-7.432,4.675-12.088
		C35.932,13.254,34.117,8.966,31.146,5.76z M24.656,19.698c-1.154-1.294-2.87-3.149-5.138-5.403
		c-0.496-0.493-1.02-1.007-1.569-1.539c0,0-0.828,0.828-1.906,1.917v-0.001c-1.379,1.395-3.168,3.211-4.161,4.273
		c-1.77,1.886-6.833,7.812-7.118,11.134c0,0-1.127-2.635,1.346-8.713c1.617-3.973,6.499-9.939,8.537-11.883c0,0-1.86-2.05-4.2-3.466
		l-0.015-0.004c0,0-0.024-0.021-0.068-0.048C9.239,5.295,8.013,4.779,6.831,4.71C5.624,4.796,4.86,5.678,4.86,5.678
		C1.846,8.893,0,13.214,0,17.968c0,9.923,8.045,17.968,17.968,17.968c5.267,0,10.005-2.271,13.292-5.881
		c-0.001-0.007-0.379-2.374-2.796-5.772C27.896,23.487,25.819,21.002,24.656,19.698z"/>
</g>
</svg>
